<mxfile host="65bd71144e">
    <diagram id="OQw-5UPyFBXKyJ3BWHEq" name="Page-1">
        <mxGraphModel dx="2367" dy="1540" grid="1" gridSize="10" guides="1" tooltips="1" connect="1" arrows="1" fold="1" page="1" pageScale="1" pageWidth="850" pageHeight="1100" math="0" shadow="0">
            <root>
                <mxCell id="0"/>
                <mxCell id="1" parent="0"/>
                <mxCell id="2" value="" style="rounded=0;whiteSpace=wrap;html=1;fillColor=none;dashed=1;strokeColor=#FFFFFF;" parent="1" vertex="1">
                    <mxGeometry x="-200" y="80" width="1440" height="1580" as="geometry"/>
                </mxCell>
                <mxCell id="3" value="" style="edgeStyle=none;html=1;strokeColor=#FFFFFF;" parent="1" source="4" target="16" edge="1">
                    <mxGeometry relative="1" as="geometry"/>
                </mxCell>
                <mxCell id="4" value="&lt;div style=&quot;font-family: &amp;quot;Fira Code Medium&amp;quot;, &amp;quot;思源黑体 HW&amp;quot;, Consolas, &amp;quot;Courier New&amp;quot;, monospace; font-size: 14px; line-height: 19px;&quot;&gt;&lt;font color=&quot;#000000&quot;&gt;fn&lt;/font&gt;&lt;/div&gt;" style="rounded=0;whiteSpace=wrap;html=1;align=center;fillColor=#fad7ac;strokeColor=#FFFFFF;" parent="1" vertex="1">
                    <mxGeometry x="285" y="150" width="110" height="50" as="geometry"/>
                </mxCell>
                <mxCell id="5" value="" style="rounded=0;whiteSpace=wrap;html=1;fillColor=none;strokeColor=#FFFFFF;" parent="1" vertex="1">
                    <mxGeometry x="160" y="460" width="340" height="130" as="geometry"/>
                </mxCell>
                <mxCell id="6" style="edgeStyle=none;html=1;exitX=0.25;exitY=1;exitDx=0;exitDy=0;entryX=0.25;entryY=0;entryDx=0;entryDy=0;strokeColor=#FFFFFF;" parent="1" source="7" target="11" edge="1">
                    <mxGeometry relative="1" as="geometry"/>
                </mxCell>
                <mxCell id="7" value="get proxy handler" style="rounded=0;whiteSpace=wrap;html=1;strokeColor=#FFFFFF;" parent="1" vertex="1">
                    <mxGeometry x="180" y="500" width="120" height="60" as="geometry"/>
                </mxCell>
                <mxCell id="8" style="edgeStyle=none;html=1;exitX=0.75;exitY=1;exitDx=0;exitDy=0;entryX=0.25;entryY=0;entryDx=0;entryDy=0;strokeColor=#FFFFFF;" parent="1" source="9" target="13" edge="1">
                    <mxGeometry relative="1" as="geometry"/>
                </mxCell>
                <mxCell id="9" value="set proxy handler" style="rounded=0;whiteSpace=wrap;html=1;strokeColor=#FFFFFF;" parent="1" vertex="1">
                    <mxGeometry x="350" y="500" width="120" height="60" as="geometry"/>
                </mxCell>
                <mxCell id="10" style="edgeStyle=none;html=1;exitX=0.5;exitY=1;exitDx=0;exitDy=0;fontColor=#FFFFFF;strokeColor=#FFFFFF;" parent="1" source="11" edge="1">
                    <mxGeometry relative="1" as="geometry">
                        <mxPoint x="260" y="920" as="targetPoint"/>
                    </mxGeometry>
                </mxCell>
                <mxCell id="11" value="track" style="rounded=0;whiteSpace=wrap;html=1;fillColor=#fad7ac;strokeColor=#FFFFFF;fontColor=#000000;" parent="1" vertex="1">
                    <mxGeometry x="200" y="660" width="120" height="60" as="geometry"/>
                </mxCell>
                <mxCell id="12" style="edgeStyle=orthogonalEdgeStyle;html=1;exitX=0.75;exitY=0;exitDx=0;exitDy=0;entryX=1;entryY=0.5;entryDx=0;entryDy=0;fontColor=#FFFFFF;dashed=1;strokeColor=#FFFFFF;" parent="1" source="13" target="4" edge="1">
                    <mxGeometry relative="1" as="geometry"/>
                </mxCell>
                <mxCell id="13" value="trigger" style="rounded=0;whiteSpace=wrap;html=1;fillColor=#fad7ac;strokeColor=#FFFFFF;fontColor=#000000;" parent="1" vertex="1">
                    <mxGeometry x="470" y="640" width="120" height="60" as="geometry"/>
                </mxCell>
                <mxCell id="14" style="edgeStyle=none;html=1;exitX=0.25;exitY=1;exitDx=0;exitDy=0;entryX=0.5;entryY=0;entryDx=0;entryDy=0;strokeColor=#FFFFFF;" parent="1" source="16" target="7" edge="1">
                    <mxGeometry relative="1" as="geometry"/>
                </mxCell>
                <mxCell id="15" style="edgeStyle=orthogonalEdgeStyle;html=1;exitX=1;exitY=0.5;exitDx=0;exitDy=0;entryX=0;entryY=0.5;entryDx=0;entryDy=0;fontColor=#FFFFFF;startArrow=none;strokeColor=#FFFFFF;" parent="1" source="49" target="47" edge="1">
                    <mxGeometry relative="1" as="geometry"/>
                </mxCell>
                <mxCell id="16" value="effect(fn)" style="rounded=0;whiteSpace=wrap;html=1;fillColor=#fad7ac;strokeColor=#FFFFFF;fontColor=#000000;" parent="1" vertex="1">
                    <mxGeometry x="280" y="280" width="120" height="60" as="geometry"/>
                </mxCell>
                <mxCell id="17" value="&lt;font color=&quot;#ffffff&quot;&gt;reactive&lt;/font&gt;" style="text;html=1;align=center;verticalAlign=middle;resizable=0;points=[];autosize=1;strokeColor=#FFFFFF;fillColor=none;" parent="1" vertex="1">
                    <mxGeometry x="160" y="460" width="70" height="30" as="geometry"/>
                </mxCell>
                <mxCell id="18" value="" style="group;strokeColor=#FFFFFF;" parent="1" vertex="1" connectable="0">
                    <mxGeometry x="200" y="970" width="550" height="570" as="geometry"/>
                </mxCell>
                <mxCell id="19" style="edgeStyle=none;html=1;exitX=0.5;exitY=1;exitDx=0;exitDy=0;entryX=0.5;entryY=0;entryDx=0;entryDy=0;fontColor=#000000;strokeColor=#FFFFFF;" parent="18" source="20" target="21" edge="1">
                    <mxGeometry relative="1" as="geometry"/>
                </mxCell>
                <mxCell id="20" value="WeakMap" style="rounded=0;whiteSpace=wrap;html=1;fillColor=#bac8d3;strokeColor=#FFFFFF;fontColor=#000000;" parent="18" vertex="1">
                    <mxGeometry width="110" height="40" as="geometry"/>
                </mxCell>
                <mxCell id="21" value="" style="rounded=0;whiteSpace=wrap;html=1;dashed=1;strokeColor=#FFFFFF;" parent="18" vertex="1">
                    <mxGeometry y="130" width="110" height="190" as="geometry"/>
                </mxCell>
                <mxCell id="22" value="target1" style="rounded=0;whiteSpace=wrap;html=1;fillColor=#bac8d3;strokeColor=#FFFFFF;fontColor=#000000;" parent="18" vertex="1">
                    <mxGeometry x="10" y="150" width="90" height="30" as="geometry"/>
                </mxCell>
                <mxCell id="23" style="edgeStyle=none;html=1;exitX=0.5;exitY=1;exitDx=0;exitDy=0;entryX=0.5;entryY=0;entryDx=0;entryDy=0;fontColor=#FFFFFF;strokeColor=#FFFFFF;" parent="18" source="24" target="27" edge="1">
                    <mxGeometry relative="1" as="geometry"/>
                </mxCell>
                <mxCell id="24" value="Map" style="rounded=0;whiteSpace=wrap;html=1;fillColor=#bac8d3;strokeColor=#FFFFFF;fontColor=#000000;" parent="18" vertex="1">
                    <mxGeometry x="230" y="145" width="110" height="40" as="geometry"/>
                </mxCell>
                <mxCell id="25" style="edgeStyle=none;html=1;exitX=1;exitY=0.5;exitDx=0;exitDy=0;strokeColor=#FFFFFF;" parent="18" source="22" target="24" edge="1">
                    <mxGeometry relative="1" as="geometry"/>
                </mxCell>
                <mxCell id="27" value="" style="rounded=0;whiteSpace=wrap;html=1;dashed=1;strokeColor=#FFFFFF;" parent="18" vertex="1">
                    <mxGeometry x="230" y="300" width="110" height="190" as="geometry"/>
                </mxCell>
                <mxCell id="28" value="key1" style="rounded=0;whiteSpace=wrap;html=1;fillColor=#bac8d3;strokeColor=#FFFFFF;fontColor=#000000;" parent="18" vertex="1">
                    <mxGeometry x="240" y="320" width="90" height="30" as="geometry"/>
                </mxCell>
                <mxCell id="29" value="Set" style="rounded=0;whiteSpace=wrap;html=1;fillColor=#bac8d3;strokeColor=#FFFFFF;fontColor=#000000;" parent="18" vertex="1">
                    <mxGeometry x="440" y="315" width="110" height="40" as="geometry"/>
                </mxCell>
                <mxCell id="30" style="edgeStyle=none;html=1;exitX=1;exitY=0.5;exitDx=0;exitDy=0;entryX=0;entryY=0.5;entryDx=0;entryDy=0;strokeColor=#FFFFFF;" parent="18" source="28" target="29" edge="1">
                    <mxGeometry relative="1" as="geometry"/>
                </mxCell>
                <mxCell id="31" value="" style="rounded=0;whiteSpace=wrap;html=1;dashed=1;strokeColor=#FFFFFF;" parent="18" vertex="1">
                    <mxGeometry x="440" y="380" width="110" height="190" as="geometry"/>
                </mxCell>
                <mxCell id="32" value="effectFn1" style="rounded=0;whiteSpace=wrap;html=1;fillColor=#bac8d3;strokeColor=#FFFFFF;fontColor=#000000;" parent="18" vertex="1">
                    <mxGeometry x="450" y="400" width="90" height="30" as="geometry"/>
                </mxCell>
                <mxCell id="34" value="&lt;div style=&quot;&quot;&gt;&lt;span style=&quot;color: rgb(255, 255, 255); background-color: initial;&quot;&gt;&amp;nbsp;set key&lt;/span&gt;&lt;/div&gt;" style="text;html=1;align=left;verticalAlign=middle;resizable=0;points=[];autosize=1;strokeColor=#FFFFFF;fillColor=none;fontColor=#000000;dashed=1;" parent="18" vertex="1">
                    <mxGeometry x="70" y="60" width="60" height="30" as="geometry"/>
                </mxCell>
                <mxCell id="36" value="&lt;div style=&quot;text-align: left;&quot;&gt;&lt;span style=&quot;background-color: initial;&quot;&gt;响应式对象被访问的键名&lt;/span&gt;&lt;br&gt;&lt;/div&gt;" style="text;html=1;align=center;verticalAlign=middle;resizable=0;points=[];autosize=1;strokeColor=#FFFFFF;fillColor=none;fontColor=#FFFFFF;" parent="18" vertex="1">
                    <mxGeometry x="40" y="350" width="160" height="30" as="geometry"/>
                </mxCell>
                <mxCell id="37" style="edgeStyle=none;html=1;exitX=0;exitY=0.5;exitDx=0;exitDy=0;entryX=0.969;entryY=0.133;entryDx=0;entryDy=0;entryPerimeter=0;fontColor=#FFFFFF;strokeColor=#FFFFFF;" parent="18" source="28" target="36" edge="1">
                    <mxGeometry relative="1" as="geometry"/>
                </mxCell>
                <mxCell id="50" value="&lt;div style=&quot;&quot;&gt;&lt;span style=&quot;color: rgb(255, 255, 255); background-color: initial;&quot;&gt;&amp;nbsp;set key&lt;/span&gt;&lt;/div&gt;" style="text;html=1;align=left;verticalAlign=middle;resizable=0;points=[];autosize=1;strokeColor=#FFFFFF;fillColor=none;fontColor=#000000;dashed=1;" parent="18" vertex="1">
                    <mxGeometry x="290" y="210" width="60" height="30" as="geometry"/>
                </mxCell>
                <mxCell id="51" value="&lt;div style=&quot;&quot;&gt;&lt;span style=&quot;color: rgb(255, 255, 255); background-color: initial;&quot;&gt;&amp;nbsp;set value&lt;/span&gt;&lt;/div&gt;" style="text;html=1;align=left;verticalAlign=middle;resizable=0;points=[];autosize=1;strokeColor=#FFFFFF;fillColor=none;fontColor=#000000;dashed=1;" parent="18" vertex="1">
                    <mxGeometry x="140" y="130" width="70" height="30" as="geometry"/>
                </mxCell>
                <mxCell id="52" value="&lt;div style=&quot;&quot;&gt;&lt;span style=&quot;color: rgb(255, 255, 255); background-color: initial;&quot;&gt;&amp;nbsp;set value&lt;/span&gt;&lt;/div&gt;" style="text;html=1;align=left;verticalAlign=middle;resizable=0;points=[];autosize=1;strokeColor=#FFFFFF;fillColor=none;fontColor=#000000;dashed=1;" parent="18" vertex="1">
                    <mxGeometry x="360" y="300" width="70" height="30" as="geometry"/>
                </mxCell>
                <mxCell id="38" value="&lt;div style=&quot;text-align: left;&quot;&gt;&lt;span style=&quot;background-color: initial;&quot;&gt;副作用函数集合&lt;/span&gt;&lt;/div&gt;&lt;div style=&quot;text-align: left;&quot;&gt;&lt;span style=&quot;background-color: initial;&quot;&gt;是集合的原因是&lt;/span&gt;&lt;/div&gt;&lt;div style=&quot;text-align: left;&quot;&gt;&lt;span style=&quot;background-color: initial;&quot;&gt;1. 可能会有多个effect访问相同的对象属性&lt;/span&gt;&lt;/div&gt;&lt;div style=&quot;text-align: left;&quot;&gt;&lt;span style=&quot;background-color: initial;&quot;&gt;2. 去重&lt;br&gt;&lt;br&gt;当响应式对象的属性的值被修改后，会遍历集合并执行副作用函数&lt;/span&gt;&lt;/div&gt;" style="text;html=1;align=center;verticalAlign=middle;resizable=0;points=[];autosize=1;strokeColor=#FFFFFF;fillColor=none;fontColor=#FFFFFF;" parent="1" vertex="1">
                    <mxGeometry x="790" y="1330" width="370" height="100" as="geometry"/>
                </mxCell>
                <mxCell id="39" style="edgeStyle=none;html=1;exitX=1;exitY=0.5;exitDx=0;exitDy=0;entryX=0.024;entryY=0.571;entryDx=0;entryDy=0;entryPerimeter=0;fontColor=#FFFFFF;strokeColor=#FFFFFF;" parent="1" source="32" target="38" edge="1">
                    <mxGeometry relative="1" as="geometry"/>
                </mxCell>
                <mxCell id="40" value="响应式对象" style="text;html=1;align=center;verticalAlign=middle;resizable=0;points=[];autosize=1;strokeColor=#FFFFFF;fillColor=none;fontColor=#FFFFFF;" parent="1" vertex="1">
                    <mxGeometry x="80" y="1125" width="80" height="30" as="geometry"/>
                </mxCell>
                <mxCell id="41" style="edgeStyle=none;html=1;exitX=0;exitY=0.75;exitDx=0;exitDy=0;entryX=0.944;entryY=0.533;entryDx=0;entryDy=0;entryPerimeter=0;fontColor=#FFFFFF;strokeColor=#FFFFFF;" parent="1" source="22" target="40" edge="1">
                    <mxGeometry relative="1" as="geometry"/>
                </mxCell>
                <mxCell id="42" value="基于 target、key、activeEffect&lt;br&gt;建立如下关系" style="text;html=1;align=left;verticalAlign=middle;resizable=0;points=[];autosize=1;strokeColor=#FFFFFF;fillColor=none;fontColor=#FFFFFF;" parent="1" vertex="1">
                    <mxGeometry x="60" y="755" width="190" height="40" as="geometry"/>
                </mxCell>
                <mxCell id="43" value="基于 target、key&lt;br&gt;查找到该属性的依赖函数集合&lt;br&gt;遍历执行" style="text;html=1;align=left;verticalAlign=middle;resizable=0;points=[];autosize=1;strokeColor=#FFFFFF;fillColor=none;fontColor=#FFFFFF;" parent="1" vertex="1">
                    <mxGeometry x="520" y="720" width="180" height="60" as="geometry"/>
                </mxCell>
                <mxCell id="44" style="edgeStyle=orthogonalEdgeStyle;html=1;exitX=1;exitY=0.5;exitDx=0;exitDy=0;entryX=0.002;entryY=0.415;entryDx=0;entryDy=0;entryPerimeter=0;dashed=1;fontColor=#FFFFFF;strokeColor=#FFFFFF;" parent="1" source="45" target="2" edge="1">
                    <mxGeometry relative="1" as="geometry"/>
                </mxCell>
                <mxCell id="45" value="&lt;div style=&quot;color: rgb(187, 187, 187); font-family: &amp;quot;Fira Code Medium&amp;quot;, &amp;quot;思源黑体 HW&amp;quot;, Consolas, &amp;quot;Courier New&amp;quot;, monospace; font-size: 14px;&quot;&gt;&amp;nbsp; &amp;nbsp;&amp;nbsp;&lt;span style=&quot;color: rgb(184, 119, 219); font-style: italic;&quot;&gt;const&lt;/span&gt;&amp;nbsp;&lt;span style=&quot;color: rgb(233, 86, 120);&quot;&gt;obj&lt;/span&gt;&amp;nbsp;&lt;span style=&quot;font-style: italic;&quot;&gt;=&lt;/span&gt;&amp;nbsp;&lt;span style=&quot;color: rgb(37, 176, 188);&quot;&gt;reactive&lt;/span&gt;({&amp;nbsp;&lt;span style=&quot;color: rgb(233, 86, 120);&quot;&gt;a&lt;/span&gt;:&amp;nbsp;&lt;span style=&quot;color: rgb(240, 148, 131);&quot;&gt;1&lt;/span&gt;&amp;nbsp;});&lt;/div&gt;&lt;div style=&quot;color: rgb(187, 187, 187); font-family: &amp;quot;Fira Code Medium&amp;quot;, &amp;quot;思源黑体 HW&amp;quot;, Consolas, &amp;quot;Courier New&amp;quot;, monospace; font-size: 14px;&quot;&gt;&lt;span style=&quot;color: rgb(37, 176, 188);&quot;&gt;&amp;nbsp; &amp;nbsp; effect&lt;/span&gt;(()&amp;nbsp;&lt;span style=&quot;color: rgb(184, 119, 219); font-style: italic;&quot;&gt;=&amp;gt;&lt;/span&gt;&amp;nbsp;{&lt;/div&gt;&lt;div style=&quot;color: rgb(187, 187, 187); font-family: &amp;quot;Fira Code Medium&amp;quot;, &amp;quot;思源黑体 HW&amp;quot;, Consolas, &amp;quot;Courier New&amp;quot;, monospace; font-size: 14px;&quot;&gt;&amp;nbsp; &amp;nbsp; &amp;nbsp;&amp;nbsp;&lt;span style=&quot;color: rgb(233, 86, 120);&quot;&gt;dummy&lt;/span&gt;&amp;nbsp;&lt;span style=&quot;font-style: italic;&quot;&gt;=&lt;/span&gt;&amp;nbsp;&lt;span style=&quot;color: rgb(233, 86, 120);&quot;&gt;obj&lt;/span&gt;.&lt;span style=&quot;color: rgb(233, 86, 120);&quot;&gt;a&lt;/span&gt;;&lt;/div&gt;&lt;div style=&quot;color: rgb(187, 187, 187); font-family: &amp;quot;Fira Code Medium&amp;quot;, &amp;quot;思源黑体 HW&amp;quot;, Consolas, &amp;quot;Courier New&amp;quot;, monospace; font-size: 14px;&quot;&gt;&amp;nbsp; &amp;nbsp; });&lt;/div&gt;&lt;div style=&quot;color: rgb(187, 187, 187); font-family: &amp;quot;Fira Code Medium&amp;quot;, &amp;quot;思源黑体 HW&amp;quot;, Consolas, &amp;quot;Courier New&amp;quot;, monospace; font-size: 14px;&quot;&gt;&lt;div style=&quot;line-height: 19px;&quot;&gt;&lt;span style=&quot;color: rgb(233, 86, 120);&quot;&gt;&amp;nbsp; &amp;nbsp; obj&lt;/span&gt;.&lt;span style=&quot;color: rgb(233, 86, 120);&quot;&gt;a&lt;/span&gt; &lt;span style=&quot;font-style: italic;&quot;&gt;=&lt;/span&gt; &lt;span style=&quot;color: rgb(240, 148, 131);&quot;&gt;2&lt;/span&gt;;&lt;/div&gt;&lt;/div&gt;" style="rounded=0;whiteSpace=wrap;html=1;fontColor=#FFFFFF;fillColor=none;align=left;strokeColor=#FFFFFF;" parent="1" vertex="1">
                    <mxGeometry x="-780" y="670" width="350" height="130" as="geometry"/>
                </mxCell>
                <mxCell id="46" style="edgeStyle=orthogonalEdgeStyle;html=1;exitX=0.75;exitY=1;exitDx=0;exitDy=0;entryX=0.75;entryY=1;entryDx=0;entryDy=0;fontColor=#FFFFFF;dashed=1;strokeColor=#FFFFFF;" parent="1" source="47" target="11" edge="1">
                    <mxGeometry relative="1" as="geometry">
                        <Array as="points">
                            <mxPoint x="840" y="810"/>
                            <mxPoint x="290" y="810"/>
                        </Array>
                    </mxGeometry>
                </mxCell>
                <mxCell id="47" value="activeEffect" style="rounded=0;whiteSpace=wrap;html=1;fillColor=#fad7ac;strokeColor=#FFFFFF;fontColor=#000000;" parent="1" vertex="1">
                    <mxGeometry x="750" y="280" width="120" height="60" as="geometry"/>
                </mxCell>
                <mxCell id="48" value="" style="edgeStyle=orthogonalEdgeStyle;html=1;exitX=1;exitY=0.5;exitDx=0;exitDy=0;entryX=0;entryY=0.5;entryDx=0;entryDy=0;fontColor=#FFFFFF;endArrow=none;strokeColor=#FFFFFF;" parent="1" source="16" target="49" edge="1">
                    <mxGeometry relative="1" as="geometry">
                        <mxPoint x="400" y="310" as="sourcePoint"/>
                        <mxPoint x="700" y="310" as="targetPoint"/>
                    </mxGeometry>
                </mxCell>
                <mxCell id="49" value="activeEffect = fn" style="text;html=1;align=center;verticalAlign=middle;resizable=0;points=[];autosize=1;strokeColor=#FFFFFF;fillColor=none;fontColor=#FFFFFF;" parent="1" vertex="1">
                    <mxGeometry x="610" y="295" width="110" height="30" as="geometry"/>
                </mxCell>
            </root>
        </mxGraphModel>
    </diagram>
</mxfile>